# xmcd
#
# Track frame offsets:
#	150
#	12940
#	24555
#	34837
#	48220
#	58137
#	67172
#	78677
#	92812
#	107535
#	118617
#	125540
#	138420
#	153952
#	163312
#	173887
#	182967
#	191905
#
# Disc length: 2715 seconds
# Revision: 0
# Processed by: cddbd v1.5.2PL0 Copyright (c) Steve Scherf et al.
# Submitted via: dBpowerAMP V12.0
#
DISCID=020a9912
DTITLE=Frank Sinatra - Come Fly With Me
DYEAR=1994
DGENRE=Pop Vocals
TTITLE0=Come Fly With Me (Live)
TTITLE1=Dancing In The Dark (Live)
TTITLE2=All The Way (Live)
TTITLE3=You Make Me Feel So Young (Live)
TTITLE4=Love Me Or Leave Me (Live)
TTITLE5=On The Sunny Side Of The Street (Live)
TTITLE6=Blue Skies
TTITLE7=Begin The Beguine
TTITLE8=I Don't Stand A Ghost Of A Chance
TTITLE9=Night And Day (Live)
TTITLE10=Somebody Loves Me
TTITLE11=Just One Of Those Things (Live)
TTITLE12=You Are Love (Live)
TTITLE13=They Didn't Believe Me (Live)
TTITLE14=Out Of Nowhere
TTITLE15=I've Got My Love To Keep Me Warm
TTITLE16=For You
TTITLE17=The Road To Mandalay (Live)
EXTD=
EXTT0=
EXTT1=
EXTT2=
EXTT3=
EXTT4=
EXTT5=
EXTT6=
EXTT7=
EXTT8=
EXTT9=
EXTT10=
EXTT11=
EXTT12=
EXTT13=
EXTT14=
EXTT15=
EXTT16=
EXTT17=
PLAYORDER=
